<?xml version="1.0" standalone="no"?><!DOCTYPE svg PUBLIC "-//W3C//DTD SVG 1.1//EN" "http://www.w3.org/Graphics/SVG/1.1/DTD/svg11.dtd"><svg t="1697618109223" class="icon" viewBox="0 0 1024 1024" version="1.1" xmlns="http://www.w3.org/2000/svg" p-id="6797" xmlns:xlink="http://www.w3.org/1999/xlink" width="200" height="200"><path d="M914.285714 800.182857a36.498286 36.498286 0 0 1-36.571428-36.278857v-618.057143H329.142857a36.498286 36.498286 0 0 1-36.571428-36.352C292.571429 89.453714 308.955429 73.142857 329.142857 73.142857H877.714286c40.374857 0 73.142857 32.548571 73.142857 72.704v618.057143a36.498286 36.498286 0 0 1-36.571429 36.352zM731.428571 364.032v581.705143a72.923429 72.923429 0 0 1-73.142857 72.704H146.285714c-40.374857 0-73.142857-32.548571-73.142857-72.704V363.958857a72.923429 72.923429 0 0 1 73.142857-72.704h512c40.374857 0 73.142857 32.548571 73.142857 72.704zM146.285714 945.737143h512V363.958857H146.285714v581.705143z" fill="#515151" p-id="6798"></path></svg>