<?xml version="1.0" standalone="no"?><!DOCTYPE svg PUBLIC "-//W3C//DTD SVG 1.1//EN" "http://www.w3.org/Graphics/SVG/1.1/DTD/svg11.dtd"><svg t="1697620225668" class="icon" viewBox="0 0 1024 1024" version="1.1" xmlns="http://www.w3.org/2000/svg" p-id="6359" width="200" height="200" xmlns:xlink="http://www.w3.org/1999/xlink"><path d="M935.52941187 766.1176475h-112.94117625v225.8823525H201.41176437v-225.8823525H32V362.01411781C32 295.83058813 78.7576475 257.8823525 144.94117625 257.8823525h56.47058813V32h621.17647125v225.8823525h56.47058812c66.18352969 0 112.94117625 37.94823563 112.94117625 104.13176531V766.1176475h-56.47058812zM257.8823525 935.52941187h508.235295v-282.35294156H257.8823525v282.35294156z m508.235295-847.05882374H257.8823525v169.41176437h508.235295V88.47058813z m165.85411687 273.54352968c0-33.09176438-19.82117625-47.66117625-52.91294062-47.66117625H201.41176437l-49.41176437-12.36705937C118.90823562 301.98588219 88.47058813 337.73176437 88.47058813 370.82352969v338.82352875h112.94117625v-112.94117625l610.56 5.30823562L822.58823563 709.64705844h112.94117625l-3.5576475-347.63294063zM509.45882375 427.29411781h-277.27058813C215.19058813 427.29411781 201.41176437 414.64470594 201.41176437 399.05882375s13.77882375-28.23529406 30.77647125-28.23529406h277.27058813c16.9976475 0 30.77647031 12.64941188 30.77647031 28.23529406s-13.77882375 28.23529406-30.77647031 28.23529406z" p-id="6360" fill="#515151"></path></svg>