<?xml version="1.0" standalone="no"?><!DOCTYPE svg PUBLIC "-//W3C//DTD SVG 1.1//EN" "http://www.w3.org/Graphics/SVG/1.1/DTD/svg11.dtd"><svg t="1697619813068" class="icon" viewBox="0 0 1024 1024" version="1.1" xmlns="http://www.w3.org/2000/svg" p-id="5954" xmlns:xlink="http://www.w3.org/1999/xlink" width="200" height="200"><path d="M839.66 413.18H799.1v193.36c0 21.58-17.5 39.08-39.08 39.08H292.85c-21.58 0-39.08-17.5-39.08-39.08V413.18h-40.56c-21.58 0-39.08 17.5-39.08 39.08v386.71c0 21.58 17.5 39.08 39.08 39.08h626.45c21.58 0 39.08-17.5 39.08-39.08V452.26c0-21.59-17.5-39.08-39.08-39.08z" fill="#515151" p-id="5955"></path><path d="M327.25 609.48h398.37c21.58 0 39.08-17.5 39.08-39.08V162.07c0-21.58-17.5-39.08-39.08-39.08H327.25c-21.58 0-39.08 17.5-39.08 39.08V570.4c0 21.58 17.5 39.08 39.08 39.08z m28.07-340.61c0-10.19 8.26-18.46 18.46-18.46H679.1c10.19 0 18.46 8.26 18.46 18.46 0 10.19-8.26 18.46-18.46 18.46H373.78c-10.2 0-18.46-8.27-18.46-18.46z m18.46 82.37H679.1c10.19 0 18.46 8.26 18.46 18.46s-8.26 18.46-18.46 18.46H373.78c-10.19 0-18.46-8.26-18.46-18.46s8.26-18.46 18.46-18.46z m0 93.9H679.1c10.19 0 18.46 8.26 18.46 18.46 0 10.19-8.26 18.46-18.46 18.46H373.78c-10.19 0-18.46-8.26-18.46-18.46 0-10.19 8.26-18.46 18.46-18.46z" fill="#515151" p-id="5956"></path></svg>